<?xml version="1.0" standalone="no"?>
<!DOCTYPE svg PUBLIC "-//W3C//DTD SVG 20010904//EN"
 "http://www.w3.org/TR/2001/REC-SVG-20010904/DTD/svg10.dtd">
<svg version="1.0" xmlns="http://www.w3.org/2000/svg"
 width="600.000000pt" height="600.000000pt" viewBox="0 0 600.000000 600.000000"
 preserveAspectRatio="xMidYMid meet">
<metadata>
Created by potrace 1.11, written by Peter Selinger 2001-2013
</metadata>
<g transform="translate(0.000000,600.000000) scale(0.100000,-0.100000)"
fill="#000000" stroke="none">
<path d="M3015 5610 c-22 -16 -51 -37 -65 -47 -14 -9 -37 -26 -51 -38 -15 -11
-37 -28 -50 -37 -31 -22 -157 -114 -189 -138 -14 -11 -59 -44 -100 -74 -41
-31 -79 -59 -85 -63 -5 -5 -26 -19 -45 -32 -19 -13 -40 -29 -45 -35 -6 -6 -18
-15 -27 -21 -14 -8 -337 -245 -823 -604 -60 -45 -168 -124 -240 -177 -71 -52
-143 -105 -159 -117 -15 -12 -33 -25 -38 -28 -6 -4 -8 -156 -4 -415 3 -225 9
-600 12 -834 3 -234 7 -535 9 -670 2 -135 4 -292 5 -350 l1 -105 102 -76 c56
-42 179 -135 272 -206 451 -342 566 -429 775 -587 124 -93 227 -172 230 -175
3 -4 86 -67 185 -141 99 -74 182 -137 185 -140 3 -3 46 -36 97 -73 l92 -68 45
30 c24 17 50 37 58 43 7 7 74 59 148 114 74 56 225 170 335 253 110 84 211
161 225 171 65 49 517 392 530 403 9 7 33 25 55 42 22 16 45 33 50 38 6 4 111
84 235 178 124 93 233 176 243 184 14 12 17 33 18 132 0 65 2 215 4 333 5 313
15 1054 20 1515 l5 400 -266 195 c-146 107 -316 232 -377 277 -62 46 -200 147
-307 225 -107 78 -197 145 -200 148 -3 3 -45 35 -95 70 -49 36 -97 70 -105 77
-12 10 -217 161 -335 247 -11 8 -78 58 -149 110 -72 53 -132 96 -135 96 -4 -1
-24 -14 -46 -30z"/>
</g>
</svg>
