{
  "asset": {
    "version": "2.0",
    "generator": "THREE.GLTFExporter"
  },
  "scenes": [
    {
      "nodes": [
        2
      ],
      "name": "Scene"
    }
  ],
  "scene": 0,
  "nodes": [
    {
      "matrix": [
        1,
        0,
        0,
        0,
        0,
        0.9966943478093029,
        -0.08124270456470566,
        0,
        0,
        0.08124270456470566,
        0.9966943478093029,
        0,
        0,
        -6.74,
        -9.2,
        1
      ],
      "name": "Orange",
      "mesh": 0
    },
    {
      "matrix": [
        -0.00977382396262527,
        2.799982941441812,
        0,
        0,
        -1.5599904959461428,
        -0.005445416207748331,
        0,
        0,
        0,
        0,
        1.560000000000001,
        0,
        0.09555253892009574,
        0.5408307020476322,
        -1.2929502892632225,
        1
      ],
      "name": "Circle",
      "mesh": 1
    },
    {
      "matrix": [
        1,
        0,
        0,
        0,
        0,
        1,
        0,
        0,
        0,
        0,
        1,
        0,
        0,
        -0.41408585420161903,
        1.3271841861890954,
        1
      ],
      "name": "Group",
      "children": [
        0,
        1
      ]
    }
  ],
  "bufferViews": [
    {
      "buffer": 0,
      "byteOffset": 0,
      "byteLength": 110736,
      "target": 34962,
      "byteStride": 12
    },
    {
      "buffer": 0,
      "byteOffset": 110736,
      "byteLength": 110736,
      "target": 34962,
      "byteStride": 12
    },
    {
      "buffer": 0,
      "byteOffset": 221472,
      "byteLength": 73824,
      "target": 34962,
      "byteStride": 8
    },
    {
      "buffer": 0,
      "byteOffset": 295296,
      "byteLength": 96,
      "target": 34962,
      "byteStride": 12
    },
    {
      "buffer": 0,
      "byteOffset": 295392,
      "byteLength": 96,
      "target": 34962,
      "byteStride": 12
    },
    {
      "buffer": 0,
      "byteOffset": 295488,
      "byteLength": 64,
      "target": 34962,
      "byteStride": 8
    },
    {
      "buffer": 0,
      "byteOffset": 295552,
      "byteLength": 36,
      "target": 34963
    }
  ],
  "buffers": [
    {
      "byteLength": 295588,
      "uri": "data:application/octet-stream;base64,"
    }
  ],
  "accessors": [
    {
      "bufferView": 0,
      "componentType": 5126,
      "count": 9228,
      "max": [
        2.954056978225708,
        10.740269660949707,
        8.715128898620605
      ],
      "min": [
        -2.6472270488739014,
        3.304503917694092,
        7.577575206756592
      ],
      "type": "VEC3"
    },
    {
      "bufferView": 1,
      "componentType": 5126,
      "count": 9228,
      "max": [
        0.999970018863678,
        0.995976984500885,
        0.9959480166435242
      ],
      "min": [
        -0.999970018863678,
        -0.995976984500885,
        -0.9959480166435242
      ],
      "type": "VEC3"
    },
    {
      "bufferView": 2,
      "componentType": 5126,
      "count": 9228,
      "max": [
        0.9042969942092896,
        0.5
      ],
      "min": [
        0.8457030057907104,
        0.5
      ],
      "type": "VEC2"
    },
    {
      "bufferView": 3,
      "componentType": 5126,
      "count": 8,
      "max": [
        1,
        0.8660253882408142,
        0
      ],
      "min": [
        -1,
        -0.8660253882408142,
        0
      ],
      "type": "VEC3"
    },
    {
      "bufferView": 4,
      "componentType": 5126,
      "count": 8,
      "max": [
        0,
        0,
        1
      ],
      "min": [
        0,
        0,
        1
      ],
      "type": "VEC3"
    },
    {
      "bufferView": 5,
      "componentType": 5126,
      "count": 8,
      "max": [
        1,
        0.9330127239227295
      ],
      "min": [
        0,
        0.0669872984290123
      ],
      "type": "VEC2"
    },
    {
      "bufferView": 6,
      "componentType": 5123,
      "count": 18,
      "max": [
        7
      ],
      "min": [
        0
      ],
      "type": "SCALAR"
    }
  ],
  "materials": [
    {
      "pbrMetallicRoughness": {
        "baseColorFactor": [
          0.5019607843137255,
          1,
          0,
          1
        ],
        "metallicFactor": 0.5,
        "roughnessFactor": 0.5
      },
      "emissiveFactor": [
        0.9019607843137255,
        0.45098039215686275,
        0
      ]
    },
    {
      "pbrMetallicRoughness": {
        "metallicFactor": 0.5,
        "roughnessFactor": 1
      },
      "emissiveFactor": [
        0.09803921568627451,
        0.0784313725490196,
        0.0784313725490196
      ]
    }
  ],
  "meshes": [
    {
      "primitives": [
        {
          "mode": 4,
          "attributes": {
            "POSITION": 0,
            "NORMAL": 1,
            "TEXCOORD_0": 2
          },
          "material": 0
        }
      ]
    },
    {
      "primitives": [
        {
          "mode": 4,
          "attributes": {
            "POSITION": 3,
            "NORMAL": 4,
            "TEXCOORD_0": 5
          },
          "indices": 6,
          "material": 1
        }
      ]
    }
  ]
}